STARTFONT 2.1
COMMENT
COMMENT Converted from OpenType font "VeraSe.ttf" by "otf2bdf 3.0".
COMMENT
FONT -FreeType-Bitstream Vera Serif-Medium-R-Normal--17-120-100-100-P-91-ISO10646-1
SIZE 12 100 100
FONTBOUNDINGBOX 25 20 -3 -4
STARTPROPERTIES 19
FOUNDRY "FreeType"
FAMILY_NAME "Bitstream Vera Serif"
WEIGHT_NAME "Medium"
SLANT "R"
SETWIDTH_NAME "Normal"
ADD_STYLE_NAME ""
PIXEL_SIZE 17
POINT_SIZE 120
RESOLUTION_X 100
RESOLUTION_Y 100
SPACING "P"
AVERAGE_WIDTH 91
CHARSET_REGISTRY "ISO10646"
CHARSET_ENCODING "1"
FONT_ASCENT 15
FONT_DESCENT 4
COPYRIGHT "Copyright (c) 2003 by Bitstream, Inc. All Rights Reserved."
_OTF_FONTFILE "VeraSe.ttf"
_OTF_PSNAME "BitstreamVeraSerif-Roman"
ENDPROPERTIES
CHARS 256
STARTCHAR 0020
ENCODING 32
SWIDTH 300 0
DWIDTH 5 0
BBX 0 0 0 0
BITMAP
ENDCHAR
STARTCHAR 0021
ENCODING 33
SWIDTH 420 0
DWIDTH 7 0
BBX 2 12 2 0
BITMAP
C0
C0
40
40
40
40
40
40
00
00
C0
C0
ENDCHAR
STARTCHAR 0022
ENCODING 34
SWIDTH 480 0
DWIDTH 8 0
BBX 4 5 2 7
BITMAP
90
90
90
90
90
ENDCHAR
STARTCHAR 0023
ENCODING 35
SWIDTH 840 0
DWIDTH 14 0
BBX 12 12 1 0
BITMAP
0440
0440
04C0
0C80
7FF0
0980
1980
FFE0
1100
1300
3300
3200
ENDCHAR
STARTCHAR 0024
ENCODING 36
SWIDTH 660 0
DWIDTH 11 0
BBX 8 15 1 -2
BITMAP
08
08
3E
6B
C9
C8
78
3E
0F
0B
89
CB
3E
08
08
ENDCHAR
STARTCHAR 0025
ENCODING 37
SWIDTH 960 0
DWIDTH 16 0
BBX 14 12 1 0
BITMAP
7020
C860
8C40
8C80
8D80
C938
724C
0644
04C4
0844
084C
1038
ENDCHAR
STARTCHAR 0026
ENCODING 38
SWIDTH 900 0
DWIDTH 15 0
BBX 13 12 1 0
BITMAP
1E00
3100
3100
3000
1800
6C78
4610
C320
C1A0
C0C0
61E0
3E38
ENDCHAR
STARTCHAR 0027
ENCODING 39
SWIDTH 300 0
DWIDTH 5 0
BBX 1 5 2 7
BITMAP
80
80
80
80
80
ENDCHAR
STARTCHAR 0028
ENCODING 40
SWIDTH 420 0
DWIDTH 7 0
BBX 4 16 1 -3
BITMAP
10
30
20
60
40
40
C0
C0
C0
C0
40
40
60
20
30
10
ENDCHAR
STARTCHAR 0029
ENCODING 41
SWIDTH 420 0
DWIDTH 7 0
BBX 4 16 1 -3
BITMAP
80
40
20
30
30
30
10
10
10
10
30
30
30
20
40
80
ENDCHAR
STARTCHAR 002A
ENCODING 42
SWIDTH 540 0
DWIDTH 9 0
BBX 7 8 1 4
BITMAP
10
92
D6
38
38
D6
92
10
ENDCHAR
STARTCHAR 002B
ENCODING 43
SWIDTH 840 0
DWIDTH 14 0
BBX 10 11 2 0
BITMAP
0C00
0C00
0C00
0C00
0C00
FFC0
0C00
0C00
0C00
0C00
0C00
ENDCHAR
STARTCHAR 002C
ENCODING 44
SWIDTH 300 0
DWIDTH 5 0
BBX 3 4 1 -2
BITMAP
60
40
40
80
ENDCHAR
STARTCHAR 002D
ENCODING 45
SWIDTH 360 0
DWIDTH 6 0
BBX 4 1 1 4
BITMAP
F0
ENDCHAR
STARTCHAR 002E
ENCODING 46
SWIDTH 300 0
DWIDTH 5 0
BBX 2 2 2 0
BITMAP
C0
C0
ENDCHAR
STARTCHAR 002F
ENCODING 47
SWIDTH 360 0
DWIDTH 6 0
BBX 6 14 0 -2
BITMAP
0C
08
08
18
10
10
30
20
20
60
40
40
C0
80
ENDCHAR
STARTCHAR 0030
ENCODING 48
SWIDTH 660 0
DWIDTH 11 0
BBX 9 12 1 0
BITMAP
3C00
6300
4300
C100
C180
C180
C180
C180
C100
4300
6300
3C00
ENDCHAR
STARTCHAR 0031
ENCODING 49
SWIDTH 660 0
DWIDTH 11 0
BBX 6 12 2 0
BITMAP
30
70
90
10
10
10
10
10
10
10
10
FC
ENDCHAR
STARTCHAR 0032
ENCODING 50
SWIDTH 660 0
DWIDTH 11 0
BBX 8 12 1 0
BITMAP
7C
C7
83
03
02
06
08
10
21
41
7F
FF
ENDCHAR
STARTCHAR 0033
ENCODING 51
SWIDTH 660 0
DWIDTH 11 0
BBX 9 12 1 0
BITMAP
3E00
4300
4300
0300
0200
1C00
0300
0100
0180
8100
C300
7E00
ENDCHAR
STARTCHAR 0034
ENCODING 52
SWIDTH 660 0
DWIDTH 11 0
BBX 9 12 1 0
BITMAP
0600
0E00
1600
1600
2600
4600
4600
8600
FF80
0600
0600
1F80
ENDCHAR
STARTCHAR 0035
ENCODING 53
SWIDTH 660 0
DWIDTH 11 0
BBX 8 12 1 0
BITMAP
7F
7F
40
40
7E
43
03
01
01
83
C3
3E
ENDCHAR
STARTCHAR 0036
ENCODING 54
SWIDTH 660 0
DWIDTH 11 0
BBX 9 12 1 0
BITMAP
1E00
2100
4100
4000
DE00
E300
C180
C180
C180
4180
6300
3E00
ENDCHAR
STARTCHAR 0037
ENCODING 55
SWIDTH 660 0
DWIDTH 11 0
BBX 9 12 1 0
BITMAP
FF80
FF00
8100
0200
0200
0200
0400
0400
0800
0800
1000
1000
ENDCHAR
STARTCHAR 0038
ENCODING 56
SWIDTH 660 0
DWIDTH 11 0
BBX 9 12 1 0
BITMAP
3E00
6300
4100
4100
6300
1C00
6300
C180
C180
C180
6300
3E00
ENDCHAR
STARTCHAR 0039
ENCODING 57
SWIDTH 660 0
DWIDTH 11 0
BBX 9 12 1 0
BITMAP
3C00
6300
C300
C100
C180
C380
6380
3D80
0100
4300
4200
3C00
ENDCHAR
STARTCHAR 003A
ENCODING 58
SWIDTH 360 0
DWIDTH 6 0
BBX 2 7 2 0
BITMAP
C0
C0
00
00
00
C0
C0
ENDCHAR
STARTCHAR 003B
ENCODING 59
SWIDTH 360 0
DWIDTH 6 0
BBX 3 9 1 -2
BITMAP
60
60
00
00
00
60
40
40
80
ENDCHAR
STARTCHAR 003C
ENCODING 60
SWIDTH 840 0
DWIDTH 14 0
BBX 10 9 2 1
BITMAP
0040
03C0
1E00
7800
C000
7800
1E00
03C0
0040
ENDCHAR
STARTCHAR 003D
ENCODING 61
SWIDTH 840 0
DWIDTH 14 0
BBX 10 4 2 3
BITMAP
FFC0
0000
0000
FFC0
ENDCHAR
STARTCHAR 003E
ENCODING 62
SWIDTH 840 0
DWIDTH 14 0
BBX 10 9 2 1
BITMAP
8000
F000
1E00
03C0
00C0
03C0
1E00
F000
8000
ENDCHAR
STARTCHAR 003F
ENCODING 63
SWIDTH 540 0
DWIDTH 9 0
BBX 7 12 1 0
BITMAP
7C
C6
86
02
06
0E
18
10
10
00
30
30
ENDCHAR
STARTCHAR 0040
ENCODING 64
SWIDTH 1020 0
DWIDTH 17 0
BBX 15 15 1 -3
BITMAP
07E0
1810
3008
6004
47A2
C462
CC22
C822
CC24
C46C
47B0
6000
3000
1810
07E0
ENDCHAR
STARTCHAR 0041
ENCODING 65
SWIDTH 720 0
DWIDTH 12 0
BBX 12 12 0 0
BITMAP
0600
0600
0B00
0B00
0980
1180
1180
30C0
3FC0
2060
4060
E0F0
ENDCHAR
STARTCHAR 0042
ENCODING 66
SWIDTH 780 0
DWIDTH 13 0
BBX 10 12 1 0
BITMAP
FF80
21C0
20C0
20C0
2180
3F00
20C0
20C0
2040
20C0
20C0
FF80
ENDCHAR
STARTCHAR 0043
ENCODING 67
SWIDTH 780 0
DWIDTH 13 0
BBX 11 12 1 0
BITMAP
1F80
30E0
6060
C020
C000
C000
C000
C000
C060
6040
30C0
1F00
ENDCHAR
STARTCHAR 0044
ENCODING 68
SWIDTH 840 0
DWIDTH 14 0
BBX 12 12 1 0
BITMAP
FF00
21C0
2060
2060
2030
2030
2030
2030
2060
2060
21C0
FF00
ENDCHAR
STARTCHAR 0045
ENCODING 69
SWIDTH 720 0
DWIDTH 12 0
BBX 10 12 1 0
BITMAP
FFC0
2040
2040
2100
2100
3F00
2100
2100
2000
2040
2040
FFC0
ENDCHAR
STARTCHAR 0046
ENCODING 70
SWIDTH 720 0
DWIDTH 12 0
BBX 10 12 1 0
BITMAP
FFC0
2040
2040
2100
2100
3F00
2100
2100
2000
2000
2000
F800
ENDCHAR
STARTCHAR 0047
ENCODING 71
SWIDTH 840 0
DWIDTH 14 0
BBX 11 12 1 0
BITMAP
1F80
30E0
6060
C020
C000
C000
C1E0
C020
C020
6020
3060
1F80
ENDCHAR
STARTCHAR 0048
ENCODING 72
SWIDTH 900 0
DWIDTH 15 0
BBX 13 12 1 0
BITMAP
F8F8
2020
2020
2020
2020
3FE0
2020
2020
2020
2020
2020
F8F8
ENDCHAR
STARTCHAR 0049
ENCODING 73
SWIDTH 420 0
DWIDTH 7 0
BBX 5 12 1 0
BITMAP
F8
20
20
20
20
20
20
20
20
20
20
F8
ENDCHAR
STARTCHAR 004A
ENCODING 74
SWIDTH 420 0
DWIDTH 7 0
BBX 7 16 -1 -4
BITMAP
3E
08
08
08
08
08
08
08
08
08
08
08
08
88
98
F0
ENDCHAR
STARTCHAR 004B
ENCODING 75
SWIDTH 780 0
DWIDTH 13 0
BBX 12 12 1 0
BITMAP
F9E0
2080
2100
2200
2C00
3800
3C00
2E00
2700
2180
20C0
F870
ENDCHAR
STARTCHAR 004C
ENCODING 76
SWIDTH 660 0
DWIDTH 11 0
BBX 10 12 1 0
BITMAP
F800
2000
2000
2000
2000
2000
2000
2000
2000
2040
2040
FFC0
ENDCHAR
STARTCHAR 004D
ENCODING 77
SWIDTH 1020 0
DWIDTH 17 0
BBX 16 12 1 0
BITMAP
F00F
301C
381C
382C
2C2C
2C4C
264C
268C
238C
230C
200C
F01E
ENDCHAR
STARTCHAR 004E
ENCODING 78
SWIDTH 900 0
DWIDTH 15 0
BBX 13 12 1 0
BITMAP
E078
7020
7820
6C20
6E20
6620
6320
61A0
60E0
60E0
6060
F020
ENDCHAR
STARTCHAR 004F
ENCODING 79
SWIDTH 840 0
DWIDTH 14 0
BBX 12 12 1 0
BITMAP
1F80
30C0
6060
C030
C030
C030
C030
C030
C030
6060
30C0
1F80
ENDCHAR
STARTCHAR 0050
ENCODING 80
SWIDTH 660 0
DWIDTH 11 0
BBX 10 12 1 0
BITMAP
FF00
2180
20C0
20C0
20C0
2180
3F00
2000
2000
2000
2000
F800
ENDCHAR
STARTCHAR 0051
ENCODING 81
SWIDTH 840 0
DWIDTH 14 0
BBX 12 15 1 -3
BITMAP
1F80
30C0
6060
C030
C030
C030
C030
C030
C030
6060
30C0
1F00
0300
01C0
00C0
ENDCHAR
STARTCHAR 0052
ENCODING 82
SWIDTH 780 0
DWIDTH 13 0
BBX 12 12 1 0
BITMAP
FF00
21C0
20C0
20C0
20C0
2180
3F00
2180
2180
20C0
20C0
F870
ENDCHAR
STARTCHAR 0053
ENCODING 83
SWIDTH 720 0
DWIDTH 12 0
BBX 9 12 1 0
BITMAP
3E00
6180
C180
C080
6000
3800
0F00
0180
4080
4080
6180
3F00
ENDCHAR
STARTCHAR 0054
ENCODING 84
SWIDTH 660 0
DWIDTH 11 0
BBX 11 12 0 0
BITMAP
FFE0
8620
8620
0600
0600
0600
0600
0600
0600
0600
0600
1F00
ENDCHAR
STARTCHAR 0055
ENCODING 85
SWIDTH 840 0
DWIDTH 14 0
BBX 13 12 1 0
BITMAP
F8F8
6020
6020
6020
6020
6020
6020
6020
6020
2020
3040
1F80
ENDCHAR
STARTCHAR 0056
ENCODING 86
SWIDTH 720 0
DWIDTH 12 0
BBX 13 12 0 0
BITMAP
F078
6020
3020
3040
3040
18C0
1880
0C80
0D00
0D00
0600
0600
ENDCHAR
STARTCHAR 0057
ENCODING 87
SWIDTH 1020 0
DWIDTH 17 0
BBX 17 12 0 0
BITMAP
F8C380
60C100
30E100
316200
316200
112200
193200
1A3400
0A1400
0E1C00
0C1800
0C1800
ENDCHAR
STARTCHAR 0058
ENCODING 88
SWIDTH 720 0
DWIDTH 12 0
BBX 12 12 0 0
BITMAP
F9E0
3040
1880
1900
0F00
0600
0700
0B00
1180
10C0
20C0
F1F0
ENDCHAR
STARTCHAR 0059
ENCODING 89
SWIDTH 660 0
DWIDTH 11 0
BBX 11 12 0 0
BITMAP
F0E0
6040
3080
1880
1900
0E00
0600
0400
0400
0400
0400
1F00
ENDCHAR
STARTCHAR 005A
ENCODING 90
SWIDTH 720 0
DWIDTH 12 0
BBX 10 12 1 0
BITMAP
FFC0
8180
8300
0300
0600
0C00
1800
1800
3000
6040
C040
FFC0
ENDCHAR
STARTCHAR 005B
ENCODING 91
SWIDTH 420 0
DWIDTH 7 0
BBX 4 15 1 -2
BITMAP
F0
C0
C0
C0
C0
C0
C0
C0
C0
C0
C0
C0
C0
C0
F0
ENDCHAR
STARTCHAR 005C
ENCODING 92
SWIDTH 360 0
DWIDTH 6 0
BBX 6 14 0 -2
BITMAP
80
C0
40
40
60
20
20
30
10
10
18
08
08
0C
ENDCHAR
STARTCHAR 005D
ENCODING 93
SWIDTH 420 0
DWIDTH 7 0
BBX 4 15 1 -2
BITMAP
F0
10
10
10
10
10
10
10
10
10
10
10
10
10
F0
ENDCHAR
STARTCHAR 005E
ENCODING 94
SWIDTH 840 0
DWIDTH 14 0
BBX 10 5 2 7
BITMAP
0C00
1E00
3300
6180
C040
ENDCHAR
STARTCHAR 005F
ENCODING 95
SWIDTH 540 0
DWIDTH 9 0
BBX 9 1 0 -4
BITMAP
FF80
ENDCHAR
STARTCHAR 0060
ENCODING 96
SWIDTH 540 0
DWIDTH 9 0
BBX 3 3 2 11
BITMAP
80
40
20
ENDCHAR
STARTCHAR 0061
ENCODING 97
SWIDTH 600 0
DWIDTH 10 0
BBX 9 9 1 0
BITMAP
7C00
4600
0200
0200
7E00
C200
C200
C600
7B80
ENDCHAR
STARTCHAR 0062
ENCODING 98
SWIDTH 660 0
DWIDTH 11 0
BBX 10 13 0 0
BITMAP
E000
2000
2000
2000
2F00
3180
30C0
30C0
20C0
30C0
30C0
3180
EF00
ENDCHAR
STARTCHAR 0063
ENCODING 99
SWIDTH 600 0
DWIDTH 10 0
BBX 8 9 1 0
BITMAP
3C
62
C2
C0
C0
C0
C3
62
3C
ENDCHAR
STARTCHAR 0064
ENCODING 100
SWIDTH 660 0
DWIDTH 11 0
BBX 9 13 1 0
BITMAP
0700
0300
0300
0300
3B00
6700
C300
C300
C300
C300
C300
6300
3F80
ENDCHAR
STARTCHAR 0065
ENCODING 101
SWIDTH 600 0
DWIDTH 10 0
BBX 8 9 1 0
BITMAP
3C
62
C3
C3
FF
C0
C1
62
3C
ENDCHAR
STARTCHAR 0066
ENCODING 102
SWIDTH 360 0
DWIDTH 6 0
BBX 6 13 1 0
BITMAP
3C
64
60
60
F8
60
60
60
60
60
60
60
F8
ENDCHAR
STARTCHAR 0067
ENCODING 103
SWIDTH 660 0
DWIDTH 11 0
BBX 9 13 1 -4
BITMAP
3B80
6700
C300
C300
C300
C300
C300
6700
3B00
0300
4300
4600
3C00
ENDCHAR
STARTCHAR 0068
ENCODING 104
SWIDTH 660 0
DWIDTH 11 0
BBX 9 13 1 0
BITMAP
E000
6000
6000
6000
6E00
7300
6300
6100
6100
6100
6100
6100
F780
ENDCHAR
STARTCHAR 0069
ENCODING 105
SWIDTH 300 0
DWIDTH 5 0
BBX 4 13 1 0
BITMAP
40
40
00
00
E0
60
60
60
60
60
60
60
F0
ENDCHAR
STARTCHAR 006A
ENCODING 106
SWIDTH 300 0
DWIDTH 5 0
BBX 6 17 -2 -4
BITMAP
08
08
00
00
1C
0C
0C
0C
0C
0C
0C
0C
0C
0C
8C
C8
70
ENDCHAR
STARTCHAR 006B
ENCODING 107
SWIDTH 600 0
DWIDTH 10 0
BBX 10 13 0 0
BITMAP
E000
2000
2000
2000
23C0
2100
2200
2C00
3E00
3600
2300
2180
7BC0
ENDCHAR
STARTCHAR 006C
ENCODING 108
SWIDTH 300 0
DWIDTH 5 0
BBX 5 13 0 0
BITMAP
E0
20
20
20
20
20
20
20
20
20
20
20
F8
ENDCHAR
STARTCHAR 006D
ENCODING 109
SWIDTH 960 0
DWIDTH 16 0
BBX 15 9 1 0
BITMAP
EE70
7398
6308
6308
6308
6308
6308
6308
F7BE
ENDCHAR
STARTCHAR 006E
ENCODING 110
SWIDTH 660 0
DWIDTH 11 0
BBX 9 9 1 0
BITMAP
EE00
7300
6300
6100
6100
6100
6100
6100
F780
ENDCHAR
STARTCHAR 006F
ENCODING 111
SWIDTH 600 0
DWIDTH 10 0
BBX 8 9 1 0
BITMAP
3C
62
C3
C1
C1
C1
C3
62
3C
ENDCHAR
STARTCHAR 0070
ENCODING 112
SWIDTH 660 0
DWIDTH 11 0
BBX 10 13 0 -4
BITMAP
EF00
3180
30C0
30C0
20C0
30C0
30C0
3180
2F00
2000
2000
2000
F800
ENDCHAR
STARTCHAR 0071
ENCODING 113
SWIDTH 660 0
DWIDTH 11 0
BBX 9 13 1 -4
BITMAP
3B80
6700
C300
C300
C300
C300
C300
6700
3B00
0300
0300
0300
0780
ENDCHAR
STARTCHAR 0072
ENCODING 114
SWIDTH 480 0
DWIDTH 8 0
BBX 7 9 1 0
BITMAP
EE
72
60
60
60
60
60
60
F0
ENDCHAR
STARTCHAR 0073
ENCODING 115
SWIDTH 540 0
DWIDTH 9 0
BBX 7 9 1 0
BITMAP
78
C4
84
C0
78
06
86
86
7C
ENDCHAR
STARTCHAR 0074
ENCODING 116
SWIDTH 420 0
DWIDTH 7 0
BBX 7 12 0 0
BITMAP
20
20
20
FC
20
20
20
20
20
22
34
1C
ENDCHAR
STARTCHAR 0075
ENCODING 117
SWIDTH 660 0
DWIDTH 11 0
BBX 10 9 0 0
BITMAP
E380
2180
2180
2180
2180
2180
2180
3180
1FC0
ENDCHAR
STARTCHAR 0076
ENCODING 118
SWIDTH 600 0
DWIDTH 10 0
BBX 10 9 0 0
BITMAP
F3C0
6100
2100
3100
3200
1200
1C00
0C00
0C00
ENDCHAR
STARTCHAR 0077
ENCODING 119
SWIDTH 900 0
DWIDTH 15 0
BBX 14 9 0 0
BITMAP
F11C
6188
2388
3288
32D0
14D0
1C50
1C60
0860
ENDCHAR
STARTCHAR 0078
ENCODING 120
SWIDTH 600 0
DWIDTH 10 0
BBX 9 9 0 0
BITMAP
F380
2200
3200
1C00
0C00
1400
1600
2300
F780
ENDCHAR
STARTCHAR 0079
ENCODING 121
SWIDTH 600 0
DWIDTH 10 0
BBX 10 13 0 -4
BITMAP
F3C0
6100
2100
3100
3200
1200
1C00
0C00
0C00
0800
0800
9000
7000
ENDCHAR
STARTCHAR 007A
ENCODING 122
SWIDTH 540 0
DWIDTH 9 0
BBX 7 9 1 0
BITMAP
FE
86
8C
18
10
30
62
C2
FE
ENDCHAR
STARTCHAR 007B
ENCODING 123
SWIDTH 660 0
DWIDTH 11 0
BBX 7 16 2 -3
BITMAP
0E
18
10
10
10
10
10
30
C0
30
10
10
10
10
18
0E
ENDCHAR
STARTCHAR 007C
ENCODING 124
SWIDTH 360 0
DWIDTH 6 0
BBX 2 17 2 -4
BITMAP
C0
C0
C0
C0
C0
C0
C0
C0
C0
C0
C0
C0
C0
C0
C0
C0
C0
ENDCHAR
STARTCHAR 007D
ENCODING 125
SWIDTH 660 0
DWIDTH 11 0
BBX 7 16 2 -3
BITMAP
E0
30
10
10
10
10
10
18
0E
10
10
10
10
10
30
E0
ENDCHAR
STARTCHAR 007E
ENCODING 126
SWIDTH 840 0
DWIDTH 14 0
BBX 10 2 2 5
BITMAP
7840
8780
ENDCHAR
STARTCHAR 00A0
ENCODING 160
SWIDTH 660 0
DWIDTH 11 0
BBX 0 0 0 0
BITMAP
ENDCHAR
STARTCHAR 00A1
ENCODING 161
SWIDTH 420 0
DWIDTH 7 0
BBX 2 12 2 0
BITMAP
C0
C0
00
00
40
40
40
40
40
40
C0
C0
ENDCHAR
STARTCHAR 00A2
ENCODING 162
SWIDTH 660 0
DWIDTH 11 0
BBX 8 13 1 -2
BITMAP
08
08
3E
6B
49
C8
C8
C8
49
6B
3E
08
08
ENDCHAR
STARTCHAR 00A3
ENCODING 163
SWIDTH 660 0
DWIDTH 11 0
BBX 8 12 1 0
BITMAP
1F
31
20
20
20
FE
20
20
20
21
21
FF
ENDCHAR
STARTCHAR 00A4
ENCODING 164
SWIDTH 660 0
DWIDTH 11 0
BBX 9 9 1 1
BITMAP
8080
7D00
6200
4300
4100
4300
6200
7D00
8080
ENDCHAR
STARTCHAR 00A5
ENCODING 165
SWIDTH 660 0
DWIDTH 11 0
BBX 11 12 0 0
BITMAP
F1E0
6080
3080
1900
7BC0
0E00
0400
7FC0
0400
0400
0400
1F00
ENDCHAR
STARTCHAR 00A6
ENCODING 166
SWIDTH 360 0
DWIDTH 6 0
BBX 2 15 2 -3
BITMAP
C0
C0
C0
C0
C0
C0
00
00
00
C0
C0
C0
C0
C0
C0
ENDCHAR
STARTCHAR 00A7
ENCODING 167
SWIDTH 540 0
DWIDTH 9 0
BBX 7 14 1 -2
BITMAP
7C
C4
C0
60
70
9C
86
C6
64
38
0C
04
8C
F8
ENDCHAR
STARTCHAR 00A8
ENCODING 168
SWIDTH 540 0
DWIDTH 9 0
BBX 5 2 2 11
BITMAP
98
98
ENDCHAR
STARTCHAR 00A9
ENCODING 169
SWIDTH 1020 0
DWIDTH 17 0
BBX 13 12 2 0
BITMAP
0F80
3060
6030
4F10
9890
9808
9808
9890
4F10
6030
3060
0F80
ENDCHAR
STARTCHAR 00AA
ENCODING 170
SWIDTH 480 0
DWIDTH 8 0
BBX 7 9 1 3
BITMAP
78
04
04
7C
C4
C4
7E
00
FC
ENDCHAR
STARTCHAR 00AB
ENCODING 171
SWIDTH 600 0
DWIDTH 10 0
BBX 7 8 2 1
BITMAP
02
24
4C
98
98
4C
24
02
ENDCHAR
STARTCHAR 00AC
ENCODING 172
SWIDTH 840 0
DWIDTH 14 0
BBX 10 4 2 3
BITMAP
FFC0
0040
0040
0040
ENDCHAR
STARTCHAR 00AD
ENCODING 173
SWIDTH 360 0
DWIDTH 6 0
BBX 4 1 1 4
BITMAP
F0
ENDCHAR
STARTCHAR 00AE
ENCODING 174
SWIDTH 1020 0
DWIDTH 17 0
BBX 13 12 2 0
BITMAP
0F80
3060
6030
5F90
8890
8888
8F08
8990
5CD0
6030
3060
0F80
ENDCHAR
STARTCHAR 00AF
ENCODING 175
SWIDTH 540 0
DWIDTH 9 0
BBX 5 1 2 12
BITMAP
F8
ENDCHAR
STARTCHAR 00B0
ENCODING 176
SWIDTH 540 0
DWIDTH 9 0
BBX 5 5 2 7
BITMAP
70
98
88
98
70
ENDCHAR
STARTCHAR 00B1
ENCODING 177
SWIDTH 840 0
DWIDTH 14 0
BBX 10 10 2 0
BITMAP
0C00
0C00
0C00
FFC0
0C00
0C00
0C00
0000
0000
FFC0
ENDCHAR
STARTCHAR 00B2
ENCODING 178
SWIDTH 420 0
DWIDTH 7 0
BBX 5 7 1 5
BITMAP
F0
98
10
10
20
C8
F8
ENDCHAR
STARTCHAR 00B3
ENCODING 179
SWIDTH 420 0
DWIDTH 7 0
BBX 5 7 1 5
BITMAP
F0
98
10
20
18
88
F0
ENDCHAR
STARTCHAR 00B4
ENCODING 180
SWIDTH 540 0
DWIDTH 9 0
BBX 3 3 4 11
BITMAP
60
C0
80
ENDCHAR
STARTCHAR 00B5
ENCODING 181
SWIDTH 660 0
DWIDTH 11 0
BBX 10 13 0 -4
BITMAP
6380
2180
2180
2180
2180
2180
3180
3180
3FC0
2000
2000
2000
F800
ENDCHAR
STARTCHAR 00B6
ENCODING 182
SWIDTH 660 0
DWIDTH 11 0
BBX 9 14 1 -2
BITMAP
3F80
7900
F900
F900
F900
7900
3900
0900
0900
0900
0900
0900
0900
0900
ENDCHAR
STARTCHAR 00B7
ENCODING 183
SWIDTH 300 0
DWIDTH 5 0
BBX 2 2 2 5
BITMAP
C0
C0
ENDCHAR
STARTCHAR 00B8
ENCODING 184
SWIDTH 540 0
DWIDTH 9 0
BBX 4 3 2 -3
BITMAP
20
10
F0
ENDCHAR
STARTCHAR 00B9
ENCODING 185
SWIDTH 420 0
DWIDTH 7 0
BBX 5 7 1 5
BITMAP
60
A0
20
20
20
20
F8
ENDCHAR
STARTCHAR 00BA
ENCODING 186
SWIDTH 480 0
DWIDTH 8 0
BBX 6 9 1 3
BITMAP
78
CC
84
84
84
CC
78
00
FC
ENDCHAR
STARTCHAR 00BB
ENCODING 187
SWIDTH 600 0
DWIDTH 10 0
BBX 7 8 2 1
BITMAP
10
88
4C
26
26
4C
88
10
ENDCHAR
STARTCHAR 00BC
ENCODING 188
SWIDTH 960 0
DWIDTH 16 0
BBX 15 13 1 -1
BITMAP
6020
A020
2040
2080
2080
2100
FB0C
021C
042C
0C4C
087E
100C
001E
ENDCHAR
STARTCHAR 00BD
ENCODING 189
SWIDTH 960 0
DWIDTH 16 0
BBX 14 13 1 -1
BITMAP
6020
A020
2040
2080
2080
2100
FB3C
0244
0404
0C08
0810
1024
007C
ENDCHAR
STARTCHAR 00BE
ENCODING 190
SWIDTH 960 0
DWIDTH 16 0
BBX 15 13 1 -1
BITMAP
F020
9820
1040
2080
1880
8900
F30C
021C
042C
0C4C
087E
100C
001E
ENDCHAR
STARTCHAR 00BF
ENCODING 191
SWIDTH 540 0
DWIDTH 9 0
BBX 7 12 1 0
BITMAP
18
18
00
08
08
38
60
C0
C0
C2
62
3C
ENDCHAR
STARTCHAR 00C0
ENCODING 192
SWIDTH 720 0
DWIDTH 12 0
BBX 12 16 0 0
BITMAP
0C00
0200
0000
0000
0600
0600
0B00
0B00
0980
1180
1180
30C0
3FC0
2060
4060
E0F0
ENDCHAR
STARTCHAR 00C1
ENCODING 193
SWIDTH 720 0
DWIDTH 12 0
BBX 12 16 0 0
BITMAP
0300
0200
0000
0000
0600
0600
0B00
0B00
0980
1180
1180
30C0
3FC0
2060
4060
E0F0
ENDCHAR
STARTCHAR 00C2
ENCODING 194
SWIDTH 720 0
DWIDTH 12 0
BBX 12 16 0 0
BITMAP
0600
0900
0000
0000
0600
0600
0B00
0B00
0980
1180
1180
30C0
3FC0
2060
4060
E0F0
ENDCHAR
STARTCHAR 00C3
ENCODING 195
SWIDTH 720 0
DWIDTH 12 0
BBX 12 16 0 0
BITMAP
0C80
1300
0000
0000
0600
0600
0B00
0B00
0980
1180
1180
30C0
3FC0
2060
4060
E0F0
ENDCHAR
STARTCHAR 00C4
ENCODING 196
SWIDTH 720 0
DWIDTH 12 0
BBX 12 16 0 0
BITMAP
0980
0980
0000
0000
0600
0600
0B00
0B00
0980
1180
1180
30C0
3FC0
2060
4060
E0F0
ENDCHAR
STARTCHAR 00C5
ENCODING 197
SWIDTH 720 0
DWIDTH 12 0
BBX 12 16 0 0
BITMAP
0600
0900
0900
0900
0700
0600
0B00
0B00
0980
1180
1180
30C0
3FC0
2060
4060
E0F0
ENDCHAR
STARTCHAR 00C6
ENCODING 198
SWIDTH 1020 0
DWIDTH 17 0
BBX 16 12 0 0
BITMAP
0FFF
0681
0481
0C84
0884
18FC
1084
1084
3F80
2081
4081
E3FF
ENDCHAR
STARTCHAR 00C7
ENCODING 199
SWIDTH 780 0
DWIDTH 13 0
BBX 11 15 1 -3
BITMAP
1F80
30E0
6060
C020
C000
C000
C000
C000
C060
6040
30C0
1F00
0200
0300
0E00
ENDCHAR
STARTCHAR 00C8
ENCODING 200
SWIDTH 720 0
DWIDTH 12 0
BBX 10 16 1 0
BITMAP
0800
0400
0000
0000
FFC0
2040
2040
2100
2100
3F00
2100
2100
2000
2040
2040
FFC0
ENDCHAR
STARTCHAR 00C9
ENCODING 201
SWIDTH 720 0
DWIDTH 12 0
BBX 10 16 1 0
BITMAP
0600
0400
0000
0000
FFC0
2040
2040
2100
2100
3F00
2100
2100
2000
2040
2040
FFC0
ENDCHAR
STARTCHAR 00CA
ENCODING 202
SWIDTH 720 0
DWIDTH 12 0
BBX 10 16 1 0
BITMAP
0C00
1200
0000
0000
FFC0
2040
2040
2100
2100
3F00
2100
2100
2000
2040
2040
FFC0
ENDCHAR
STARTCHAR 00CB
ENCODING 203
SWIDTH 720 0
DWIDTH 12 0
BBX 10 16 1 0
BITMAP
1300
1300
0000
0000
FFC0
2040
2040
2100
2100
3F00
2100
2100
2000
2040
2040
FFC0
ENDCHAR
STARTCHAR 00CC
ENCODING 204
SWIDTH 420 0
DWIDTH 7 0
BBX 5 16 1 0
BITMAP
40
20
00
00
F8
20
20
20
20
20
20
20
20
20
20
F8
ENDCHAR
STARTCHAR 00CD
ENCODING 205
SWIDTH 420 0
DWIDTH 7 0
BBX 5 16 1 0
BITMAP
10
20
00
00
F8
20
20
20
20
20
20
20
20
20
20
F8
ENDCHAR
STARTCHAR 00CE
ENCODING 206
SWIDTH 420 0
DWIDTH 7 0
BBX 5 16 1 0
BITMAP
70
98
00
00
F8
20
20
20
20
20
20
20
20
20
20
F8
ENDCHAR
STARTCHAR 00CF
ENCODING 207
SWIDTH 420 0
DWIDTH 7 0
BBX 5 16 1 0
BITMAP
D8
D8
00
00
F8
20
20
20
20
20
20
20
20
20
20
F8
ENDCHAR
STARTCHAR 00D0
ENCODING 208
SWIDTH 840 0
DWIDTH 14 0
BBX 12 12 1 0
BITMAP
FF00
21C0
2060
2060
2030
FC30
2030
2030
2060
2060
21C0
FF00
ENDCHAR
STARTCHAR 00D1
ENCODING 209
SWIDTH 900 0
DWIDTH 15 0
BBX 13 16 1 0
BITMAP
0E80
0B80
0000
0000
E078
7020
7820
6C20
6E20
6620
6320
61A0
60E0
60E0
6060
F020
ENDCHAR
STARTCHAR 00D2
ENCODING 210
SWIDTH 840 0
DWIDTH 14 0
BBX 12 16 1 0
BITMAP
0C00
0600
0000
0000
1F80
30C0
6060
C030
C030
C030
C030
C030
C030
6060
30C0
1F80
ENDCHAR
STARTCHAR 00D3
ENCODING 211
SWIDTH 840 0
DWIDTH 14 0
BBX 12 16 1 0
BITMAP
0300
0400
0000
0000
1F80
30C0
6060
C030
C030
C030
C030
C030
C030
6060
30C0
1F80
ENDCHAR
STARTCHAR 00D4
ENCODING 212
SWIDTH 840 0
DWIDTH 14 0
BBX 12 16 1 0
BITMAP
0600
0900
0000
0000
1F80
30C0
6060
C030
C030
C030
C030
C030
C030
6060
30C0
1F80
ENDCHAR
STARTCHAR 00D5
ENCODING 213
SWIDTH 840 0
DWIDTH 14 0
BBX 12 16 1 0
BITMAP
0C80
1300
0000
0000
1F80
30C0
6060
C030
C030
C030
C030
C030
C030
6060
30C0
1F80
ENDCHAR
STARTCHAR 00D6
ENCODING 214
SWIDTH 840 0
DWIDTH 14 0
BBX 12 16 1 0
BITMAP
0900
0900
0000
0000
1F80
30C0
6060
C030
C030
C030
C030
C030
C030
6060
30C0
1F80
ENDCHAR
STARTCHAR 00D7
ENCODING 215
SWIDTH 840 0
DWIDTH 14 0
BBX 8 10 3 0
BITMAP
81
C1
62
36
1C
1C
34
62
C1
81
ENDCHAR
STARTCHAR 00D8
ENCODING 216
SWIDTH 840 0
DWIDTH 14 0
BBX 12 12 1 0
BITMAP
1F10
30E0
6060
C0A0
C130
C230
C430
C830
D030
6060
70C0
9F80
ENDCHAR
STARTCHAR 00D9
ENCODING 217
SWIDTH 840 0
DWIDTH 14 0
BBX 13 16 1 0
BITMAP
0400
0200
0000
0000
F8F8
6020
6020
6020
6020
6020
6020
6020
6020
2020
3040
1F80
ENDCHAR
STARTCHAR 00DA
ENCODING 218
SWIDTH 840 0
DWIDTH 14 0
BBX 13 16 1 0
BITMAP
0100
0200
0000
0000
F8F8
6020
6020
6020
6020
6020
6020
6020
6020
2020
3040
1F80
ENDCHAR
STARTCHAR 00DB
ENCODING 219
SWIDTH 840 0
DWIDTH 14 0
BBX 13 16 1 0
BITMAP
0700
0D80
0000
0000
F8F8
6020
6020
6020
6020
6020
6020
6020
6020
2020
3040
1F80
ENDCHAR
STARTCHAR 00DC
ENCODING 220
SWIDTH 840 0
DWIDTH 14 0
BBX 13 16 1 0
BITMAP
0D80
0D80
0000
0000
F8F8
6020
6020
6020
6020
6020
6020
6020
6020
2020
3040
1F80
ENDCHAR
STARTCHAR 00DD
ENCODING 221
SWIDTH 660 0
DWIDTH 11 0
BBX 11 16 0 0
BITMAP
0200
0400
0000
0000
F0E0
6040
3080
1880
1900
0E00
0600
0400
0400
0400
0400
1F00
ENDCHAR
STARTCHAR 00DE
ENCODING 222
SWIDTH 660 0
DWIDTH 11 0
BBX 10 12 1 0
BITMAP
F800
2000
3F00
2180
20C0
20C0
20C0
2180
3F00
2000
2000
F800
ENDCHAR
STARTCHAR 00DF
ENCODING 223
SWIDTH 660 0
DWIDTH 11 0
BBX 11 13 0 0
BITMAP
1F00
3080
2380
2600
2600
2600
2300
21C0
2040
2060
2860
2C40
E780
ENDCHAR
STARTCHAR 00E0
ENCODING 224
SWIDTH 600 0
DWIDTH 10 0
BBX 9 14 1 0
BITMAP
6000
3000
1000
0000
0000
7C00
4600
0200
0200
7E00
C200
C200
C600
7B80
ENDCHAR
STARTCHAR 00E1
ENCODING 225
SWIDTH 600 0
DWIDTH 10 0
BBX 9 14 1 0
BITMAP
0400
0800
1000
0000
0000
7C00
4600
0200
0200
7E00
C200
C200
C600
7B80
ENDCHAR
STARTCHAR 00E2
ENCODING 226
SWIDTH 600 0
DWIDTH 10 0
BBX 9 14 1 0
BITMAP
1800
2800
4400
0000
0000
7C00
4600
0200
0200
7E00
C200
C200
C600
7B80
ENDCHAR
STARTCHAR 00E3
ENCODING 227
SWIDTH 600 0
DWIDTH 10 0
BBX 9 13 1 0
BITMAP
7400
4C00
0000
0000
7C00
4600
0200
0200
7E00
C200
C200
C600
7B80
ENDCHAR
STARTCHAR 00E4
ENCODING 228
SWIDTH 600 0
DWIDTH 10 0
BBX 9 13 1 0
BITMAP
6C00
6C00
0000
0000
7C00
4600
0200
0200
7E00
C200
C200
C600
7B80
ENDCHAR
STARTCHAR 00E5
ENCODING 229
SWIDTH 600 0
DWIDTH 10 0
BBX 9 15 1 0
BITMAP
3800
2400
4400
2400
3800
0000
7C00
4600
0200
0200
7E00
C200
C200
C600
7B80
ENDCHAR
STARTCHAR 00E6
ENCODING 230
SWIDTH 960 0
DWIDTH 16 0
BBX 14 9 1 0
BITMAP
7CF0
4798
030C
030C
7FFC
C300
C304
C708
78F0
ENDCHAR
STARTCHAR 00E7
ENCODING 231
SWIDTH 600 0
DWIDTH 10 0
BBX 8 12 1 -3
BITMAP
3C
62
C2
C0
C0
C0
C3
62
3C
08
04
38
ENDCHAR
STARTCHAR 00E8
ENCODING 232
SWIDTH 600 0
DWIDTH 10 0
BBX 8 14 1 0
BITMAP
20
10
08
00
00
3C
62
C3
C3
FF
C0
C1
62
3C
ENDCHAR
STARTCHAR 00E9
ENCODING 233
SWIDTH 600 0
DWIDTH 10 0
BBX 8 14 1 0
BITMAP
04
08
10
00
00
3C
62
C3
C3
FF
C0
C1
62
3C
ENDCHAR
STARTCHAR 00EA
ENCODING 234
SWIDTH 600 0
DWIDTH 10 0
BBX 8 14 1 0
BITMAP
18
34
24
00
00
3C
62
C3
C3
FF
C0
C1
62
3C
ENDCHAR
STARTCHAR 00EB
ENCODING 235
SWIDTH 600 0
DWIDTH 10 0
BBX 8 13 1 0
BITMAP
24
24
00
00
3C
62
C3
C3
FF
C0
C1
62
3C
ENDCHAR
STARTCHAR 00EC
ENCODING 236
SWIDTH 300 0
DWIDTH 5 0
BBX 5 14 0 0
BITMAP
C0
60
20
00
00
70
30
30
30
30
30
30
30
78
ENDCHAR
STARTCHAR 00ED
ENCODING 237
SWIDTH 300 0
DWIDTH 5 0
BBX 4 14 1 0
BITMAP
10
20
40
00
00
E0
60
60
60
60
60
60
60
F0
ENDCHAR
STARTCHAR 00EE
ENCODING 238
SWIDTH 300 0
DWIDTH 5 0
BBX 5 14 0 0
BITMAP
30
50
88
00
00
70
30
30
30
30
30
30
30
78
ENDCHAR
STARTCHAR 00EF
ENCODING 239
SWIDTH 300 0
DWIDTH 5 0
BBX 5 13 0 0
BITMAP
D8
D8
00
00
70
30
30
30
30
30
30
30
78
ENDCHAR
STARTCHAR 00F0
ENCODING 240
SWIDTH 600 0
DWIDTH 10 0
BBX 8 13 1 0
BITMAP
60
1E
3C
46
3E
63
C3
C1
C1
C1
C3
62
3C
ENDCHAR
STARTCHAR 00F1
ENCODING 241
SWIDTH 660 0
DWIDTH 11 0
BBX 9 13 1 0
BITMAP
3A00
2E00
0000
0000
EE00
7300
6300
6100
6100
6100
6100
6100
F780
ENDCHAR
STARTCHAR 00F2
ENCODING 242
SWIDTH 600 0
DWIDTH 10 0
BBX 8 14 1 0
BITMAP
20
10
08
00
00
3C
62
C3
C1
C1
C1
C3
62
3C
ENDCHAR
STARTCHAR 00F3
ENCODING 243
SWIDTH 600 0
DWIDTH 10 0
BBX 8 14 1 0
BITMAP
04
0C
18
00
00
3C
62
C3
C1
C1
C1
C3
62
3C
ENDCHAR
STARTCHAR 00F4
ENCODING 244
SWIDTH 600 0
DWIDTH 10 0
BBX 8 14 1 0
BITMAP
18
34
24
00
00
3C
62
C3
C1
C1
C1
C3
62
3C
ENDCHAR
STARTCHAR 00F5
ENCODING 245
SWIDTH 600 0
DWIDTH 10 0
BBX 8 13 1 0
BITMAP
32
4C
00
00
3C
62
C3
C1
C1
C1
C3
62
3C
ENDCHAR
STARTCHAR 00F6
ENCODING 246
SWIDTH 600 0
DWIDTH 10 0
BBX 8 13 1 0
BITMAP
26
26
00
00
3C
62
C3
C1
C1
C1
C3
62
3C
ENDCHAR
STARTCHAR 00F7
ENCODING 247
SWIDTH 840 0
DWIDTH 14 0
BBX 10 7 2 2
BITMAP
0C00
0C00
0000
FFC0
0000
0C00
0C00
ENDCHAR
STARTCHAR 00F8
ENCODING 248
SWIDTH 600 0
DWIDTH 10 0
BBX 8 9 1 0
BITMAP
3D
62
C7
CD
C9
D1
E3
62
BC
ENDCHAR
STARTCHAR 00F9
ENCODING 249
SWIDTH 660 0
DWIDTH 11 0
BBX 10 14 0 0
BITMAP
3000
1800
0800
0000
0000
E380
2180
2180
2180
2180
2180
2180
3180
1FC0
ENDCHAR
STARTCHAR 00FA
ENCODING 250
SWIDTH 660 0
DWIDTH 11 0
BBX 10 14 0 0
BITMAP
0200
0400
0800
0000
0000
E380
2180
2180
2180
2180
2180
2180
3180
1FC0
ENDCHAR
STARTCHAR 00FB
ENCODING 251
SWIDTH 660 0
DWIDTH 11 0
BBX 10 14 0 0
BITMAP
0C00
1600
1200
0000
0000
E380
2180
2180
2180
2180
2180
2180
3180
1FC0
ENDCHAR
STARTCHAR 00FC
ENCODING 252
SWIDTH 660 0
DWIDTH 11 0
BBX 10 13 0 0
BITMAP
3200
3200
0000
0000
E380
2180
2180
2180
2180
2180
2180
3180
1FC0
ENDCHAR
STARTCHAR 00FD
ENCODING 253
SWIDTH 600 0
DWIDTH 10 0
BBX 10 18 0 -4
BITMAP
0200
0400
0800
0000
0000
F3C0
6100
2100
3100
3200
1200
1C00
0C00
0C00
0800
0800
9000
7000
ENDCHAR
STARTCHAR 00FE
ENCODING 254
SWIDTH 660 0
DWIDTH 11 0
BBX 10 17 0 -4
BITMAP
E000
2000
2000
2000
2F00
3180
30C0
30C0
20C0
30C0
30C0
3180
2F00
2000
2000
2000
F800
ENDCHAR
STARTCHAR 00FF
ENCODING 255
SWIDTH 600 0
DWIDTH 10 0
BBX 10 17 0 -4
BITMAP
3200
3200
0000
0000
F3C0
6100
2100
3100
3200
1200
1C00
0C00
0C00
0800
0800
9000
7000
ENDCHAR
STARTCHAR 0106
ENCODING 262
SWIDTH 780 0
DWIDTH 13 0
BBX 11 16 1 0
BITMAP
0200
0400
0000
0000
1F80
30E0
6060
C020
C000
C000
C000
C000
C060
6040
30C0
1F00
ENDCHAR
STARTCHAR 0107
ENCODING 263
SWIDTH 600 0
DWIDTH 10 0
BBX 8 14 1 0
BITMAP
04
08
10
00
00
3C
62
C2
C0
C0
C0
C3
62
3C
ENDCHAR
STARTCHAR 010C
ENCODING 268
SWIDTH 780 0
DWIDTH 13 0
BBX 11 16 1 0
BITMAP
0900
0600
0000
0000
1F80
30E0
6060
C020
C000
C000
C000
C000
C060
6040
30C0
1F00
ENDCHAR
STARTCHAR 010D
ENCODING 269
SWIDTH 600 0
DWIDTH 10 0
BBX 8 14 1 0
BITMAP
24
34
18
00
00
3C
62
C2
C0
C0
C0
C3
62
3C
ENDCHAR
STARTCHAR 0111
ENCODING 273
SWIDTH 660 0
DWIDTH 11 0
BBX 9 13 1 0
BITMAP
0700
0300
0F80
0300
3B00
6700
C300
C300
C300
C300
C300
6300
3F80
ENDCHAR
STARTCHAR 011E
ENCODING 286
SWIDTH 840 0
DWIDTH 14 0
BBX 11 16 1 0
BITMAP
1100
0F00
0000
0000
1F80
30E0
6060
C020
C000
C000
C1E0
C020
C020
6020
3060
1F80
ENDCHAR
STARTCHAR 011F
ENCODING 287
SWIDTH 660 0
DWIDTH 11 0
BBX 9 17 1 -4
BITMAP
2200
1C00
0000
0000
3B80
6700
C300
C300
C300
C300
C300
6700
3B00
0300
4300
4600
3C00
ENDCHAR
STARTCHAR 0130
ENCODING 304
SWIDTH 420 0
DWIDTH 7 0
BBX 5 16 1 0
BITMAP
20
20
00
00
F8
20
20
20
20
20
20
20
20
20
20
F8
ENDCHAR
STARTCHAR 0131
ENCODING 305
SWIDTH 300 0
DWIDTH 5 0
BBX 4 9 1 0
BITMAP
E0
60
60
60
60
60
60
60
F0
ENDCHAR
STARTCHAR 0141
ENCODING 321
SWIDTH 660 0
DWIDTH 11 0
BBX 10 12 1 0
BITMAP
F800
2000
2000
2000
2C00
3000
6000
A000
2000
2040
2040
FFC0
ENDCHAR
STARTCHAR 0142
ENCODING 322
SWIDTH 360 0
DWIDTH 6 0
BBX 5 13 0 0
BITMAP
70
30
30
30
30
38
30
F0
30
30
30
30
78
ENDCHAR
STARTCHAR 0152
ENCODING 338
SWIDTH 1140 0
DWIDTH 19 0
BBX 17 12 1 0
BITMAP
0FFF80
30C080
60C080
C0C200
C0C200
C0FE00
C0C200
C0C200
C0C000
60C080
30C080
0FFF80
ENDCHAR
STARTCHAR 0153
ENCODING 339
SWIDTH 1020 0
DWIDTH 17 0
BBX 15 9 1 0
BITMAP
3C78
628C
C386
C106
C1FE
C100
C386
6284
3C78
ENDCHAR
STARTCHAR 015E
ENCODING 350
SWIDTH 720 0
DWIDTH 12 0
BBX 9 15 1 -3
BITMAP
3E00
6180
C180
C080
6000
3800
0F00
0180
4080
4080
6180
3F00
0400
0400
1C00
ENDCHAR
STARTCHAR 015F
ENCODING 351
SWIDTH 540 0
DWIDTH 9 0
BBX 7 12 1 -3
BITMAP
78
C4
84
C0
78
06
86
86
7C
10
08
38
ENDCHAR
STARTCHAR 0160
ENCODING 352
SWIDTH 720 0
DWIDTH 12 0
BBX 9 16 1 0
BITMAP
1200
0C00
0000
0000
3E00
6180
C180
C080
6000
3800
0F00
0180
4080
4080
6180
3F00
ENDCHAR
STARTCHAR 0161
ENCODING 353
SWIDTH 540 0
DWIDTH 9 0
BBX 7 14 1 0
BITMAP
44
28
30
00
00
78
C4
84
C0
78
06
86
86
7C
ENDCHAR
STARTCHAR 0178
ENCODING 376
SWIDTH 660 0
DWIDTH 11 0
BBX 11 16 0 0
BITMAP
1B00
1B00
0000
0000
F0E0
6040
3080
1880
1900
0E00
0600
0400
0400
0400
0400
1F00
ENDCHAR
STARTCHAR 017D
ENCODING 381
SWIDTH 720 0
DWIDTH 12 0
BBX 10 16 1 0
BITMAP
1200
0C00
0000
0000
FFC0
8180
8300
0300
0600
0C00
1800
1800
3000
6040
C040
FFC0
ENDCHAR
STARTCHAR 017E
ENCODING 382
SWIDTH 540 0
DWIDTH 9 0
BBX 7 14 1 0
BITMAP
44
28
38
00
00
FE
86
8C
18
10
30
62
C2
FE
ENDCHAR
STARTCHAR 0192
ENCODING 402
SWIDTH 660 0
DWIDTH 11 0
BBX 10 16 0 -4
BITMAP
03C0
0240
0600
0600
0400
1F80
0400
0400
0C00
0C00
0C00
0C00
0C00
0800
9800
F000
ENDCHAR
STARTCHAR 02C6
ENCODING 710
SWIDTH 540 0
DWIDTH 9 0
BBX 5 3 2 11
BITMAP
60
50
88
ENDCHAR
STARTCHAR 02C7
ENCODING 711
SWIDTH 540 0
DWIDTH 9 0
BBX 5 3 2 11
BITMAP
88
50
60
ENDCHAR
STARTCHAR 02D8
ENCODING 728
SWIDTH 540 0
DWIDTH 9 0
BBX 5 2 2 11
BITMAP
88
F0
ENDCHAR
STARTCHAR 02D9
ENCODING 729
SWIDTH 540 0
DWIDTH 9 0
BBX 2 2 3 11
BITMAP
C0
C0
ENDCHAR
STARTCHAR 02DA
ENCODING 730
SWIDTH 540 0
DWIDTH 9 0
BBX 5 5 2 10
BITMAP
70
90
88
90
70
ENDCHAR
STARTCHAR 02DB
ENCODING 731
SWIDTH 540 0
DWIDTH 9 0
BBX 3 3 3 -3
BITMAP
80
80
E0
ENDCHAR
STARTCHAR 02DC
ENCODING 732
SWIDTH 540 0
DWIDTH 9 0
BBX 5 2 2 11
BITMAP
C8
B8
ENDCHAR
STARTCHAR 02DD
ENCODING 733
SWIDTH 540 0
DWIDTH 9 0
BBX 5 3 2 11
BITMAP
68
58
90
ENDCHAR
STARTCHAR 03A9
ENCODING 937
SWIDTH 840 0
DWIDTH 14 0
BBX 12 12 1 0
BITMAP
1F80
30C0
6060
C030
C030
C030
C030
4020
6060
9090
F9F0
F9F0
ENDCHAR
STARTCHAR 03C0
ENCODING 960
SWIDTH 660 0
DWIDTH 11 0
BBX 10 9 1 0
BITMAP
FFC0
6100
6100
6100
6100
6100
6100
6100
F780
ENDCHAR
STARTCHAR 2013
ENCODING 8211
SWIDTH 540 0
DWIDTH 9 0
BBX 9 1 0 4
BITMAP
FF80
ENDCHAR
STARTCHAR 2014
ENCODING 8212
SWIDTH 1020 0
DWIDTH 17 0
BBX 17 1 0 4
BITMAP
FFFF80
ENDCHAR
STARTCHAR 2018
ENCODING 8216
SWIDTH 300 0
DWIDTH 5 0
BBX 2 4 2 8
BITMAP
40
C0
80
80
ENDCHAR
STARTCHAR 2019
ENCODING 8217
SWIDTH 300 0
DWIDTH 5 0
BBX 3 4 1 8
BITMAP
60
60
40
C0
ENDCHAR
STARTCHAR 201A
ENCODING 8218
SWIDTH 300 0
DWIDTH 5 0
BBX 3 4 1 -2
BITMAP
60
60
40
80
ENDCHAR
STARTCHAR 201C
ENCODING 8220
SWIDTH 540 0
DWIDTH 9 0
BBX 6 4 2 8
BITMAP
44
C8
98
98
ENDCHAR
STARTCHAR 201D
ENCODING 8221
SWIDTH 540 0
DWIDTH 9 0
BBX 6 4 1 8
BITMAP
64
64
4C
C8
ENDCHAR
STARTCHAR 201E
ENCODING 8222
SWIDTH 540 0
DWIDTH 9 0
BBX 6 4 1 -2
BITMAP
64
6C
48
90
ENDCHAR
STARTCHAR 2020
ENCODING 8224
SWIDTH 540 0
DWIDTH 9 0
BBX 8 14 0 -2
BITMAP
08
08
08
CB
FF
CB
08
08
08
08
08
08
08
08
ENDCHAR
STARTCHAR 2021
ENCODING 8225
SWIDTH 540 0
DWIDTH 9 0
BBX 8 14 0 -2
BITMAP
08
08
08
CB
FF
CB
08
08
CB
FF
CB
08
08
08
ENDCHAR
STARTCHAR 2022
ENCODING 8226
SWIDTH 600 0
DWIDTH 10 0
BBX 4 5 3 4
BITMAP
70
F0
F0
F0
70
ENDCHAR
STARTCHAR 2026
ENCODING 8230
SWIDTH 1020 0
DWIDTH 17 0
BBX 13 2 2 0
BITMAP
C218
C218
ENDCHAR
STARTCHAR 2030
ENCODING 8240
SWIDTH 1380 0
DWIDTH 23 0
BBX 21 12 1 0
BITMAP
702000
C86000
8C4000
8C8000
8D8000
C938F0
724C90
064598
04C508
084598
084C90
1038F0
ENDCHAR
STARTCHAR 2039
ENCODING 8249
SWIDTH 420 0
DWIDTH 7 0
BBX 3 6 2 2
BITMAP
20
40
80
80
40
20
ENDCHAR
STARTCHAR 203A
ENCODING 8250
SWIDTH 420 0
DWIDTH 7 0
BBX 3 6 2 2
BITMAP
80
40
20
20
40
80
ENDCHAR
STARTCHAR 20AC
ENCODING 8364
SWIDTH 660 0
DWIDTH 11 0
BBX 9 12 0 0
BITMAP
0F00
1180
3080
2080
FE00
6000
6000
FC00
2080
3080
1100
0F00
ENDCHAR
STARTCHAR 2122
ENCODING 8482
SWIDTH 1020 0
DWIDTH 17 0
BBX 12 5 2 7
BITMAP
FF30
AB60
22A0
2220
7630
ENDCHAR
STARTCHAR 2202
ENCODING 8706
SWIDTH 540 0
DWIDTH 9 0
BBX 7 11 1 0
BITMAP
38
24
06
02
7E
C6
C6
86
84
CC
78
ENDCHAR
STARTCHAR 2206
ENCODING 8710
SWIDTH 720 0
DWIDTH 12 0
BBX 10 12 1 0
BITMAP
0C00
0C00
1600
1600
2200
2300
4300
4180
4180
8080
FFC0
FFC0
ENDCHAR
STARTCHAR 220F
ENCODING 8719
SWIDTH 840 0
DWIDTH 14 0
BBX 13 15 0 -3
BITMAP
FFF8
3020
3020
3020
3020
3020
3020
3020
3020
3020
3020
3020
3020
3020
F8F8
ENDCHAR
STARTCHAR 2211
ENCODING 8721
SWIDTH 720 0
DWIDTH 12 0
BBX 12 15 0 -3
BITMAP
FFC0
6040
3040
1800
0C00
0600
0300
0180
0100
0200
0400
1810
2010
3FE0
FFE0
ENDCHAR
STARTCHAR 2212
ENCODING 8722
SWIDTH 840 0
DWIDTH 14 0
BBX 10 1 2 5
BITMAP
FFC0
ENDCHAR
STARTCHAR 2215
ENCODING 8725
SWIDTH 180 0
DWIDTH 3 0
BBX 9 12 -3 0
BITMAP
0180
0100
0200
0600
0400
0800
1800
1000
2000
2000
4000
8000
ENDCHAR
STARTCHAR 2219
ENCODING 8729
SWIDTH 300 0
DWIDTH 5 0
BBX 2 2 2 5
BITMAP
C0
C0
ENDCHAR
STARTCHAR 221A
ENCODING 8730
SWIDTH 660 0
DWIDTH 11 0
BBX 10 14 1 0
BITMAP
00C0
0080
0100
0100
0100
0200
C200
4400
6400
2400
3800
3800
1800
1000
ENDCHAR
STARTCHAR 221E
ENCODING 8734
SWIDTH 840 0
DWIDTH 14 0
BBX 10 6 2 2
BITMAP
7380
8E40
8440
8C40
9C40
7380
ENDCHAR
STARTCHAR 222B
ENCODING 8747
SWIDTH 540 0
DWIDTH 9 0
BBX 8 16 0 -3
BITMAP
07
05
0C
08
08
08
08
08
08
08
08
18
18
18
D0
60
ENDCHAR
STARTCHAR 2248
ENCODING 8776
SWIDTH 840 0
DWIDTH 14 0
BBX 10 5 2 3
BITMAP
7840
87C0
0000
7840
87C0
ENDCHAR
STARTCHAR 2260
ENCODING 8800
SWIDTH 840 0
DWIDTH 14 0
BBX 10 9 2 0
BITMAP
0080
0180
0100
FFC0
0400
0C00
FFC0
3000
6000
ENDCHAR
STARTCHAR 2264
ENCODING 8804
SWIDTH 840 0
DWIDTH 14 0
BBX 10 10 2 0
BITMAP
0040
03C0
3E00
E000
E000
3E00
03C0
0040
0000
FFC0
ENDCHAR
STARTCHAR 2265
ENCODING 8805
SWIDTH 840 0
DWIDTH 14 0
BBX 10 10 2 0
BITMAP
8000
F800
1F00
01C0
01C0
1F00
F800
8000
0000
FFC0
ENDCHAR
STARTCHAR 25CA
ENCODING 9674
SWIDTH 480 0
DWIDTH 8 0
BBX 8 16 0 -3
BITMAP
08
18
14
24
22
42
41
81
81
41
42
22
24
14
18
08
ENDCHAR
STARTCHAR FB01
ENCODING 64257
SWIDTH 660 0
DWIDTH 11 0
BBX 10 13 1 0
BITMAP
3F00
6100
6000
6000
FF80
6180
6180
6180
6180
6180
6180
6180
F3C0
ENDCHAR
STARTCHAR FB02
ENCODING 64258
SWIDTH 660 0
DWIDTH 11 0
BBX 10 13 1 0
BITMAP
1F00
6100
6100
6100
F900
6100
6100
6100
6100
6100
6100
6100
F7C0
ENDCHAR
ENDFONT
